<svg width="540" height="400" viewBox="0 0 540 400" fill="none" xmlns="http://www.w3.org/2000/svg">
  <!-- Background Elements -->
  <circle cx="270" cy="200" r="170" fill="#F5F8FF" />
  
  <!-- Process Flow Path -->
  <path d="M120 200 H420" stroke="#E1E7FF" stroke-width="8" stroke-linecap="round" stroke-dasharray="1 12" />
  
  <!-- Process Nodes -->
  <circle cx="150" cy="200" r="25" fill="#3056D3" />
  <circle cx="270" cy="200" r="25" fill="#33C381" />
  <circle cx="390" cy="200" r="25" fill="#F3901D" />
  
  <!-- Connecting Lines -->
  <path d="M150 150 V100 H270 V150" stroke="#3056D3" stroke-width="3" />
  <path d="M270 150 V100 H390 V150" stroke="#33C381" stroke-width="3" />
  <path d="M150 250 V300 H270 V250" stroke="#3056D3" stroke-width="3" />
  <path d="M270 250 V300 H390 V250" stroke="#33C381" stroke-width="3" />
  
  <!-- Icons inside nodes -->
  <!-- Discovery Icon -->
  <path d="M143 193 H157 M150 186 V200" stroke="white" stroke-width="2.5" stroke-linecap="round" />
  <!-- Strategy Icon -->
  <path d="M263 193 H277 M270 193 L270 207" stroke="white" stroke-width="2.5" stroke-linecap="round" />
  <!-- Implementation Icon -->
  <path d="M383 193 H397 M390 186 V200" stroke="white" stroke-width="2.5" stroke-linecap="round" stroke-linejoin="round" />
  
  <!-- Top Boxes -->
  <rect x="120" y="60" width="60" height="40" rx="5" fill="white" stroke="#3056D3" stroke-width="2" />
  <rect x="240" y="60" width="60" height="40" rx="5" fill="white" stroke="#33C381" stroke-width="2" />
  <rect x="360" y="60" width="60" height="40" rx="5" fill="white" stroke="#F3901D" stroke-width="2" />
  
  <!-- Bottom Boxes -->
  <rect x="120" y="300" width="60" height="40" rx="5" fill="white" stroke="#3056D3" stroke-width="2" />
  <rect x="240" y="300" width="60" height="40" rx="5" fill="white" stroke="#33C381" stroke-width="2" />
  <rect x="360" y="300" width="60" height="40" rx="5" fill="white" stroke="#F3901D" stroke-width="2" />
  
  <!-- Text labels -->
  <text x="150" y="83" text-anchor="middle" font-size="10" font-weight="bold" fill="#3056D3">Discover</text>
  <text x="270" y="83" text-anchor="middle" font-size="10" font-weight="bold" fill="#33C381">Design</text>
  <text x="390" y="83" text-anchor="middle" font-size="10" font-weight="bold" fill="#F3901D">Deliver</text>
  
  <text x="150" y="323" text-anchor="middle" font-size="10" font-weight="bold" fill="#3056D3">Analyze</text>
  <text x="270" y="323" text-anchor="middle" font-size="10" font-weight="bold" fill="#33C381">Build</text>
  <text x="390" y="323" text-anchor="middle" font-size="10" font-weight="bold" fill="#F3901D">Optimize</text>
  
  <!-- Decorative Elements -->
  <circle cx="150" cy="200" r="35" fill="#3056D3" fill-opacity="0.1" />
  <circle cx="270" cy="200" r="35" fill="#33C381" fill-opacity="0.1" />
  <circle cx="390" cy="200" r="35" fill="#F3901D" fill-opacity="0.1" />
  
  <!-- Small Dots -->
  <circle cx="175" cy="200" r="3" fill="#3056D3" />
  <circle cx="195" cy="200" r="3" fill="#3056D3" />
  <circle cx="215" cy="200" r="3" fill="#3056D3" />
  <circle cx="235" cy="200" r="3" fill="#33C381" />
  
  <circle cx="295" cy="200" r="3" fill="#33C381" />
  <circle cx="315" cy="200" r="3" fill="#33C381" />
  <circle cx="335" cy="200" r="3" fill="#F3901D" />
  <circle cx="355" cy="200" r="3" fill="#F3901D" />
</svg> 