<svg width="128" height="128" viewBox="0 0 128 128" fill="none" xmlns="http://www.w3.org/2000/svg">
  <path d="M38.6875 53.5625L36.125 51.875L38.6875 50.1875L41.25 48.5L43.8125 50.1875L46.375 51.875L43.8125 53.5625L41.25 55.25L38.6875 53.5625Z" fill="#F90"/>
  <path d="M38.6875 77.8125L36.125 76.125L38.6875 74.4375L41.25 72.75L43.8125 74.4375L46.375 76.125L43.8125 77.8125L41.25 79.5L38.6875 77.8125Z" fill="#F90"/>
  <path d="M50.9375 65.6875L48.375 64L50.9375 62.3125L53.5 60.625L56.0625 62.3125L58.625 64L56.0625 65.6875L53.5 67.375L50.9375 65.6875Z" fill="#F90"/>
  <path d="M26.4375 65.6875L23.875 64L26.4375 62.3125L29 60.625L31.5625 62.3125L34.125 64L31.5625 65.6875L29 67.375L26.4375 65.6875Z" fill="#F90"/>
  <path d="M64 64C64 59.0294 62.5924 54.1719 59.9553 50.0554C57.3181 45.9389 53.5698 42.7759 49.1844 40.9515C44.799 39.1271 39.9734 38.7227 35.3463 39.7889C30.7192 40.8551 26.5253 43.3424 23.3137 46.9099C20.1021 50.4775 18.0217 54.9645 17.3661 59.7682C16.7104 64.5719 17.5079 69.4726 19.6539 73.8076C21.7999 78.1426 25.1909 81.7264 29.3983 84.1182C33.6057 86.51 38.4506 87.6016 43.3333 87.25" stroke="#252F3E" stroke-width="4" stroke-linecap="round"/>
  <path d="M64 64C64 59.0294 65.4076 54.1719 68.0447 50.0554C70.6819 45.9389 74.4302 42.7759 78.8156 40.9515C83.201 39.1271 88.0266 38.7227 92.6537 39.7889C97.2808 40.8551 101.475 43.3424 104.686 46.9099C107.898 50.4775 109.978 54.9645 110.634 59.7682C111.29 64.5719 110.492 69.4726 108.346 73.8076C106.2 78.1426 102.809 81.7264 98.6017 84.1182C94.3943 86.51 89.5494 87.6016 84.6667 87.25" stroke="#252F3E" stroke-width="4" stroke-linecap="round"/>
  <path d="M43.3333 87.25H84.6667" stroke="#252F3E" stroke-width="4" stroke-linecap="round"/>
</svg> 