<svg width="128" height="128" viewBox="0 0 128 128" fill="none" xmlns="http://www.w3.org/2000/svg">
  <path d="M124 56C122.4 54.8 119.2 54 116.4 54C115.6 54 114.8 54 114 54.4C113.6 51.2 111.6 48.8 108.4 46.8L107.2 46L106.4 47.2C105.2 49.2 104.4 51.6 104.4 54C104.4 55.6 104.8 57.2 105.6 58.8C103.6 59.6 100 59.6 99.6 59.6H20.4C19.2 65.2 20 72 22.8 77.6C26 83.6 31.2 87.6 38 89.2C45.6 90.8 52.8 89.6 58.8 86C62.4 88.8 68 90 72.8 90C80.4 90 87.6 86.8 92.4 80.8L93.2 79.6L91.6 79.2C89.6 78.4 87.6 77.2 86 75.6C85.2 74.8 84 73.6 83.2 72.4H86.8L90.4 72.8L90.8 71.6C92.4 68 92.8 63.6 92 60H96.4C100.4 60 104 59.2 106.8 57.6C108.4 56.8 110 55.6 111.6 54C116 55.2 120.4 55.2 123.2 54.4L124.8 54L124 56Z" fill="#0091E2"/>
  <path d="M24 66.4H34.4V76.8H24V66.4Z" fill="white"/>
  <path d="M36.8 66.4H47.2V76.8H36.8V66.4Z" fill="white"/>
  <path d="M49.6 66.4H60V76.8H49.6V66.4Z" fill="white"/>
  <path d="M62.4 66.4H72.8V76.8H62.4V66.4Z" fill="white"/>
  <path d="M62.4 54H72.8V64.4H62.4V54Z" fill="white"/>
  <path d="M75.2 66.4H85.6V76.8H75.2V66.4Z" fill="white"/>
  <path d="M49.6 54H60V64.4H49.6V54Z" fill="white"/>
  <path d="M36.8 54H47.2V64.4H36.8V54Z" fill="white"/>
  <path d="M24 54H34.4V64.4H24V54Z" fill="white"/>
</svg> 