<svg width="64" height="64" viewBox="0 0 64 64" fill="none" xmlns="http://www.w3.org/2000/svg">
  <rect width="64" height="64" rx="4" fill="#F5F7FA"/>
  <path d="M32 16C23.2 16 16 23.2 16 32C16 40.8 23.2 48 32 48C40.8 48 48 40.8 48 32C48 23.2 40.8 16 32 16ZM32 44C25.4 44 20 38.6 20 32C20 25.4 25.4 20 32 20C38.6 20 44 25.4 44 32C44 38.6 38.6 44 32 44Z" fill="#3056D3" fill-opacity="0.6"/>
  <path d="M32 24C28.7 24 26 26.7 26 30C26 33.3 28.7 36 32 36C35.3 36 38 33.3 38 30C38 26.7 35.3 24 32 24ZM32 32C30.9 32 30 31.1 30 30C30 28.9 30.9 28 32 28C33.1 28 34 28.9 34 30C34 31.1 33.1 32 32 32Z" fill="#3056D3" fill-opacity="0.8"/>
</svg> 