<svg width="128" height="128" viewBox="0 0 128 128" fill="none" xmlns="http://www.w3.org/2000/svg">
  <path d="M63.8626 22C38.3626 22 39.7376 32.575 39.7376 32.575L39.7626 43.45H64.1126V47H30.8626C30.8626 47 17.8626 45.1 17.8626 70.75C17.8626 96.4 28.7376 95.65 28.7376 95.65H36.6126V84.325C36.6126 84.325 36.0126 73.45 47.1126 73.45H71.2376C71.2376 73.45 81.6126 73.6 81.6126 63.4V34.9C81.6126 34.9 83.3626 22 63.8626 22ZM47.5126 37.25C50.0126 37.25 52.0126 39.25 52.0126 41.75C52.0126 44.25 50.0126 46.25 47.5126 46.25C45.0126 46.25 43.0126 44.25 43.0126 41.75C43.0126 39.25 45.0126 37.25 47.5126 37.25Z" fill="#366A96"/>
  <path d="M64.1375 106C89.6375 106 88.2625 95.425 88.2625 95.425L88.2375 84.55H63.8875V81H97.1375C97.1375 81 110.138 82.9 110.138 57.25C110.138 31.6 99.2625 32.35 99.2625 32.35H91.3875V43.675C91.3875 43.675 91.9875 54.55 80.8875 54.55H56.7625C56.7625 54.55 46.3875 54.4 46.3875 64.6V93.1C46.3875 93.1 44.6375 106 64.1375 106ZM80.4875 90.75C77.9875 90.75 75.9875 88.75 75.9875 86.25C75.9875 83.75 77.9875 81.75 80.4875 81.75C82.9875 81.75 84.9875 83.75 84.9875 86.25C84.9875 88.75 82.9875 90.75 80.4875 90.75Z" fill="#FFD43B"/>
</svg> 