<svg width="128" height="128" viewBox="0 0 128 128" fill="none" xmlns="http://www.w3.org/2000/svg">
  <path d="M64 75.3C70.1797 75.3 75.2 70.2797 75.2 64.1C75.2 57.9203 70.1797 52.9 64 52.9C57.8203 52.9 52.8 57.9203 52.8 64.1C52.8 70.2797 57.8203 75.3 64 75.3Z" fill="#61DAFB"/>
  <path d="M64 83.7C96.4 83.7 122.6 74.9 122.6 64.1C122.6 53.3 96.4 44.5 64 44.5C31.6 44.5 5.40002 53.3 5.40002 64.1C5.40002 74.9 31.6 83.7 64 83.7Z" stroke="#61DAFB" stroke-width="3"/>
  <path d="M47.5 73.9C63.7 102.1 84.1 119.7 93.3 114.3C102.5 108.9 97.7 83.3 81.5 55.1C65.3 26.9 44.9 9.29999 35.7 14.7C26.5 20.1 31.3 45.7 47.5 73.9Z" stroke="#61DAFB" stroke-width="3"/>
  <path d="M47.5 55.1C31.3 83.3 26.5 108.9 35.7 114.3C44.9 119.7 65.3 102.1 81.5 73.9C97.7 45.7 102.5 20.1 93.3 14.7C84.1 9.29999 63.7 26.9 47.5 55.1Z" stroke="#61DAFB" stroke-width="3"/>
</svg> 