<svg xmlns="http://www.w3.org/2000/svg" xmlns:xlink="http://www.w3.org/1999/xlink" width="138" zoomAndPan="magnify" viewBox="0 0 104.88 30.000001" height="27" preserveAspectRatio="xMidYMid meet" version="1.0"><defs><g/><clipPath id="53ac735b0d"><path d="M 1.632812 4.632812 L 21 4.632812 L 21 23 L 1.632812 23 Z M 1.632812 4.632812 " clip-rule="nonzero"/></clipPath><clipPath id="37a03df4a6"><path d="M 6 4.632812 L 25 4.632812 L 25 23 L 6 23 Z M 6 4.632812 " clip-rule="nonzero"/></clipPath></defs><g clip-path="url(#53ac735b0d)"><path fill="#4a6cf7" d="M 1.925781 4.632812 C 12.03125 4.632812 20.226562 12.753906 20.226562 22.777344 L 3.390625 22.777344 C 2.582031 22.777344 1.925781 22.128906 1.925781 21.324219 Z M 1.925781 4.632812 " fill-opacity="1" fill-rule="nonzero"/></g><g clip-path="url(#37a03df4a6)"><path fill="#4a6cf7" d="M 6.316406 22.777344 C 6.316406 12.753906 14.511719 4.632812 24.621094 4.632812 L 24.621094 21.324219 C 24.621094 22.128906 23.964844 22.777344 23.15625 22.777344 Z M 6.316406 22.777344 " fill-opacity="0.5" fill-rule="nonzero"/></g><g fill="#ffffff" fill-opacity="1"><g transform="translate(32.014486, 19.077688)"><g><path d="M 6.203125 0 L 1.21875 0 L 1.21875 -14.0625 L 6.25 -14.0625 C 7.664062 -14.0625 8.882812 -13.78125 9.90625 -13.21875 C 10.925781 -12.664062 11.710938 -11.863281 12.265625 -10.8125 C 12.816406 -9.757812 13.09375 -8.503906 13.09375 -7.046875 C 13.09375 -5.578125 12.816406 -4.316406 12.265625 -3.265625 C 11.710938 -2.210938 10.921875 -1.40625 9.890625 -0.84375 C 8.867188 -0.28125 7.640625 0 6.203125 0 Z M 4.203125 -2.546875 L 6.09375 -2.546875 C 7.414062 -2.546875 8.414062 -2.898438 9.09375 -3.609375 C 9.78125 -4.328125 10.125 -5.472656 10.125 -7.046875 C 10.125 -8.609375 9.78125 -9.742188 9.09375 -10.453125 C 8.414062 -11.160156 7.414062 -11.515625 6.09375 -11.515625 L 4.203125 -11.515625 Z M 4.203125 -2.546875 "/></g></g></g><g fill="#ffffff" fill-opacity="1"><g transform="translate(46.085137, 19.077688)"><g><path d="M 4.171875 0.203125 C 3.171875 0.203125 2.335938 -0.0546875 1.671875 -0.578125 C 1.003906 -1.109375 0.671875 -1.898438 0.671875 -2.953125 C 0.671875 -3.734375 0.851562 -4.347656 1.21875 -4.796875 C 1.59375 -5.242188 2.082031 -5.570312 2.6875 -5.78125 C 3.289062 -5.988281 3.941406 -6.128906 4.640625 -6.203125 C 5.554688 -6.285156 6.207031 -6.378906 6.59375 -6.484375 C 6.988281 -6.585938 7.1875 -6.804688 7.1875 -7.140625 L 7.1875 -7.1875 C 7.1875 -7.625 7.050781 -7.957031 6.78125 -8.1875 C 6.507812 -8.425781 6.125 -8.546875 5.625 -8.546875 C 5.101562 -8.546875 4.6875 -8.429688 4.375 -8.203125 C 4.0625 -7.972656 3.851562 -7.6875 3.75 -7.34375 L 1.046875 -7.5625 C 1.242188 -8.519531 1.742188 -9.28125 2.546875 -9.84375 C 3.347656 -10.40625 4.378906 -10.6875 5.640625 -10.6875 C 6.421875 -10.6875 7.148438 -10.5625 7.828125 -10.3125 C 8.515625 -10.070312 9.066406 -9.6875 9.484375 -9.15625 C 9.910156 -8.632812 10.125 -7.953125 10.125 -7.109375 L 10.125 0 L 7.34375 0 L 7.34375 -1.46875 L 7.265625 -1.46875 C 7.003906 -0.976562 6.617188 -0.578125 6.109375 -0.265625 C 5.597656 0.046875 4.953125 0.203125 4.171875 0.203125 Z M 5.015625 -1.828125 C 5.648438 -1.828125 6.175781 -2.007812 6.59375 -2.375 C 7.007812 -2.75 7.21875 -3.210938 7.21875 -3.765625 L 7.21875 -4.890625 C 7.101562 -4.816406 6.921875 -4.75 6.671875 -4.6875 C 6.429688 -4.625 6.175781 -4.570312 5.90625 -4.53125 C 5.632812 -4.488281 5.390625 -4.453125 5.171875 -4.421875 C 4.660156 -4.347656 4.25 -4.203125 3.9375 -3.984375 C 3.625 -3.765625 3.46875 -3.453125 3.46875 -3.046875 C 3.46875 -2.640625 3.613281 -2.332031 3.90625 -2.125 C 4.195312 -1.925781 4.566406 -1.828125 5.015625 -1.828125 Z M 5.015625 -1.828125 "/></g></g></g><g fill="#ffffff" fill-opacity="1"><g transform="translate(57.311425, 19.077688)"><g><path d="M 6.78125 -10.546875 L 6.78125 -8.359375 L 4.796875 -8.359375 L 4.796875 -3.25 C 4.796875 -2.84375 4.882812 -2.566406 5.0625 -2.421875 C 5.25 -2.285156 5.488281 -2.21875 5.78125 -2.21875 C 5.914062 -2.21875 6.050781 -2.226562 6.1875 -2.25 C 6.332031 -2.269531 6.441406 -2.289062 6.515625 -2.3125 L 6.96875 -0.125 C 6.820312 -0.0820312 6.613281 -0.03125 6.34375 0.03125 C 6.082031 0.09375 5.765625 0.128906 5.390625 0.140625 C 4.328125 0.191406 3.472656 -0.0351562 2.828125 -0.546875 C 2.179688 -1.054688 1.863281 -1.828125 1.875 -2.859375 L 1.875 -8.359375 L 0.421875 -8.359375 L 0.421875 -10.546875 L 1.875 -10.546875 L 1.875 -13.078125 L 4.796875 -13.078125 L 4.796875 -10.546875 Z M 6.78125 -10.546875 "/></g></g></g><g fill="#ffffff" fill-opacity="1"><g transform="translate(64.82768, 19.077688)"><g><path d="M 1.171875 0 L 1.171875 -10.546875 L 4.09375 -10.546875 L 4.09375 0 Z M 2.640625 -11.90625 C 2.210938 -11.90625 1.84375 -12.050781 1.53125 -12.34375 C 1.21875 -12.632812 1.0625 -12.984375 1.0625 -13.390625 C 1.0625 -13.796875 1.21875 -14.144531 1.53125 -14.4375 C 1.84375 -14.726562 2.210938 -14.875 2.640625 -14.875 C 3.078125 -14.875 3.453125 -14.726562 3.765625 -14.4375 C 4.078125 -14.144531 4.234375 -13.796875 4.234375 -13.390625 C 4.234375 -12.984375 4.078125 -12.632812 3.765625 -12.34375 C 3.453125 -12.050781 3.078125 -11.90625 2.640625 -11.90625 Z M 2.640625 -11.90625 "/></g></g></g><g fill="#ffffff" fill-opacity="1"><g transform="translate(70.09043, 19.077688)"><g><path d="M 6.9375 -10.546875 L 6.9375 -8.359375 L 4.84375 -8.359375 L 4.84375 0 L 1.921875 0 L 1.921875 -8.359375 L 0.421875 -8.359375 L 0.421875 -10.546875 L 1.921875 -10.546875 L 1.921875 -11.3125 C 1.921875 -12.457031 2.25 -13.3125 2.90625 -13.875 C 3.5625 -14.445312 4.382812 -14.734375 5.375 -14.734375 C 5.820312 -14.734375 6.234375 -14.695312 6.609375 -14.625 C 6.984375 -14.550781 7.265625 -14.488281 7.453125 -14.4375 L 6.9375 -12.234375 C 6.820312 -12.273438 6.675781 -12.3125 6.5 -12.34375 C 6.332031 -12.375 6.160156 -12.390625 5.984375 -12.390625 C 5.554688 -12.390625 5.257812 -12.289062 5.09375 -12.09375 C 4.925781 -11.894531 4.84375 -11.617188 4.84375 -11.265625 L 4.84375 -10.546875 Z M 6.9375 -10.546875 "/></g></g></g><g fill="#ffffff" fill-opacity="1"><g transform="translate(77.647905, 19.077688)"><g><path d="M 2.875 4.109375 C 2.457031 4.109375 2.097656 4.070312 1.796875 4 C 1.503906 3.925781 1.273438 3.851562 1.109375 3.78125 L 1.765625 1.515625 C 2.285156 1.671875 2.722656 1.710938 3.078125 1.640625 C 3.429688 1.566406 3.710938 1.289062 3.921875 0.8125 L 4.109375 0.296875 L 0.328125 -10.546875 L 3.40625 -10.546875 L 5.59375 -2.796875 L 5.703125 -2.796875 L 7.90625 -10.546875 L 11 -10.546875 L 6.890625 1.203125 C 6.585938 2.046875 6.109375 2.738281 5.453125 3.28125 C 4.804688 3.832031 3.945312 4.109375 2.875 4.109375 Z M 2.875 4.109375 "/></g></g></g></svg>