<svg width="200" height="200" viewBox="0 0 200 200" fill="none" xmlns="http://www.w3.org/2000/svg">
  <rect width="200" height="200" fill="#F5F7FA"/>
  <rect x="40" y="85" width="120" height="30" rx="4" fill="#3056D3" fill-opacity="0.2"/>
  <path d="M100 50C83.4315 50 70 63.4315 70 80C70 96.5685 83.4315 110 100 110C116.569 110 130 96.5685 130 80C130 63.4315 116.569 50 100 50ZM100 105C86.2 105 75 93.8 75 80C75 66.2 86.2 55 100 55C113.8 55 125 66.2 125 80C125 93.8 113.8 105 100 105Z" fill="#3056D3"/>
  <path d="M100 65C93.1 65 87.5 70.6 87.5 77.5C87.5 84.4 93.1 90 100 90C106.9 90 112.5 84.4 112.5 77.5C112.5 70.6 106.9 65 100 65ZM100 85C95.9 85 92.5 81.6 92.5 77.5C92.5 73.4 95.9 70 100 70C104.1 70 107.5 73.4 107.5 77.5C107.5 81.6 104.1 85 100 85Z" fill="#3056D3"/>
  <rect x="40" y="125" width="120" height="10" rx="2" fill="#D1D5DB"/>
  <rect x="40" y="145" width="120" height="10" rx="2" fill="#D1D5DB"/>
</svg> 